<svg viewBox="0 0 512 512" xmlns="http://www.w3.org/2000/svg"><circle cx="256" cy="256" fill="#fff" r="234"/><path d="m70 208 66.52-66.81 28.1 28.1-2.29 2.65c-6.88 7.74-6.6 14.34 0 21.23l14.67 14.83a37.93 37.93 0 0 1 0 53.35l-25.24 25.52.57.57c16.93 16.91 17.78 39.29 0 57.07l-30.37 30.38-28.13-28.13 20.07-20.07c7.17-7.17 6.87-14.63.28-21.23l-44.18-44.11a37.89 37.89 0 0 1 0-53.35zm64.29 13.19c-6.89-7.45-14.64-7.74-21.51 0l-2.59 2.8c-6.87 7.46-6.87 14.34 0 21.23l13.48 13.47 13.19-13.47c6.89-7.17 6.89-13.49 0-21.23z"/><path d="m271.23 157.51v160.6c0 24.95-15.2 40.14-40.15 40.14h-35.27v-40.14h20.08c10 0 15.19-5.16 15.19-15.2v-145.35z"/><path d="m435 358.25h-40.11v-57.31l-14.05-14c-6.6-6.6-14.34-7.17-21.51 0l-14.05 14v57.31h-40.14v-71.74l33.55-33.27-33.55-33.54v-62.19h40.14v47.93l14.05 14c7.17 7.17 14.63 6.89 21.51 0l14.05-14v-47.93h40.11v62.24l-33.54 33.55 33.54 33.21z"/></svg>